<?xml version="1.0" encoding="UTF-8" standalone="no"?>
<!-- Created with Inkscape (http://www.inkscape.org/) -->

<svg
   width="90.094948mm"
   height="90.094948mm"
   viewBox="0 0 90.094948 90.094948"
   version="1.1"
   id="svg1"
   xml:space="preserve"
   xmlns="http://www.w3.org/2000/svg"
   xmlns:svg="http://www.w3.org/2000/svg"><defs
     id="defs1" /><g
     id="layer1"
     transform="translate(123.1627,136.35925)"><path
       id="path1-0"
       style="fill:#ffffff;fill-opacity:1;stroke-width:0.210718"
       d="m -78.115237,-136.35925 a 45.047462,45.047462 0 0 0 -45.047473,45.047471 45.047462,45.047462 0 0 0 45.047473,45.04748 45.047462,45.047462 0 0 0 45.047478,-45.04748 45.047462,45.047462 0 0 0 -45.047478,-45.047471 z m 0,5.00695 a 40.040426,40.040426 0 0 1 40.040526,40.040521 40.040426,40.040426 0 0 1 -40.040526,40.04052 40.040426,40.040426 0 0 1 -40.040093,-40.04052 40.040426,40.040426 0 0 1 40.040093,-40.040521 z" /></g></svg>
